
<svg width="58.7607703px" height="27px" viewBox="0 0 58.7607703 27" version="1.1" xmlns="http://www.w3.org/2000/svg" xmlns:xlink="http://www.w3.org/1999/xlink">
    <g id="Page-1" stroke="none" stroke-width="1" fill="none" fill-rule="evenodd">
        <g id="Group-36" fill-rule="nonzero">
            <path d="M35.5535215,0 L45.7355415,0 C47.4857572,-0.0110840984 49.2172459,0.367697995 50.808753,1.11006738 C52.3561251,1.82701208 53.7606098,2.82849109 54.9518338,4.06432406 C56.1398106,5.30436875 57.0867506,6.76241575 57.7426445,8.36146351 C58.4191996,9.98656326 58.7655323,11.7345849 58.7607703,13.4999322 C58.7635946,15.251707 58.4234568,16.9864531 57.7602336,18.6025452 C57.112737,20.2070512 56.1715892,21.6713102 54.9870121,22.9171857 C53.7997704,24.1624138 52.3946095,25.1704554 50.8439313,25.8893702 C49.2406034,26.6345415 47.4967946,27.0133297 45.7347039,26.9991907 L35.5535215,26.9991907 L35.5535215,0 Z" id="Path" fill="#8282FB"></path>
            <path d="M17.7378134,2.84217094e-14 L27.9198334,2.84217094e-14 C29.670049,-0.0110840984 31.4015378,0.367697995 32.9930448,1.11006738 C34.5404122,1.82702059 35.9448955,2.82849857 37.1361256,4.06432406 C38.3240945,5.30437524 39.2710335,6.76242062 39.9269364,8.36146351 C40.6034915,9.98656326 40.9498241,11.7345849 40.9450622,13.4999322 C40.9478752,15.2517058 40.6077379,16.9864498 39.9445255,18.6025452 C39.297038,20.2070561 38.355889,21.6713168 37.1713039,22.9171857 C35.9840623,24.1624138 34.5789014,25.1704554 33.0282231,25.8893702 C31.4249038,26.6345679 29.6810892,27.0133572 27.9189958,26.9991907 L17.7378134,26.9991907 L17.7378134,2.84217094e-14 Z" id="Path" fill="#DA449C"></path>
            <path d="M-4.54747351e-13,0 L10.18202,0 C11.9322356,-0.0110840984 13.6637244,0.367697995 15.2552314,1.11006738 C16.8025988,1.82702059 18.2070821,2.82849857 19.3983123,4.06432406 C20.586289,5.30436875 21.533229,6.76241575 22.189123,8.36146351 C22.8656781,9.98656326 23.2120107,11.7345849 23.2072488,13.4999322 C23.2100618,15.2517058 22.8699245,16.9864498 22.2067121,18.6025452 C21.5587616,20.2073397 20.6170366,21.6717568 19.4318154,22.9176125 C18.2445738,24.1628407 16.8394129,25.1708822 15.2887346,25.8897971 C13.685411,26.6349816 11.9415993,27.0137703 10.1795073,26.9996175 L-4.54747351e-13,26.9996175 L-4.54747351e-13,0 Z" id="Path" fill="#008454"></path>
        </g>
    </g>
</svg>
