<?xml version="1.0" encoding="UTF-8"?><svg id="uuid-9788f5c4-9b4e-4ec1-9c3a-b9a237c2b1b3" xmlns="http://www.w3.org/2000/svg" viewBox="0 0 500 436.38"><defs><style>.uuid-f265cb4f-d199-4beb-8df9-a453b62ff67a{fill:#fff;}.uuid-f265cb4f-d199-4beb-8df9-a453b62ff67a,.uuid-2d17e8b4-5439-43c8-a2a0-66e2bfc707ac,.uuid-02f5b7a2-b0b9-4c98-9fc8-43d1b9dfd319{stroke-width:0px;}.uuid-2d17e8b4-5439-43c8-a2a0-66e2bfc707ac{fill:#f05323;}.uuid-02f5b7a2-b0b9-4c98-9fc8-43d1b9dfd319{fill:#000001;}</style></defs><rect class="uuid-f265cb4f-d199-4beb-8df9-a453b62ff67a" x="219.54" y="-173.72" width="70.96" height="418.4" transform="translate(290.5 -219.54) rotate(90)"/><rect class="uuid-f265cb4f-d199-4beb-8df9-a453b62ff67a" x="47.82" y="2" width="414.4" height="66.96"/><polygon class="uuid-f265cb4f-d199-4beb-8df9-a453b62ff67a" points="57.81 65.57 110.46 65.57 108.4 7.06 55.92 7.06 57.81 65.57"/><polygon class="uuid-f265cb4f-d199-4beb-8df9-a453b62ff67a" points="124.23 9.3 130.77 62.64 445.67 62.64 437.06 5.86 124.23 9.3"/><path class="uuid-f265cb4f-d199-4beb-8df9-a453b62ff67a" d="m18.06,114.61c1.03,3.61,77.91,312.83,77.91,312.83l387.73-69.17V120.29l-465.64-5.68Z"/><path class="uuid-02f5b7a2-b0b9-4c98-9fc8-43d1b9dfd319" d="m341.36,165.58c0-1.63.15-3.2.44-4.7h-28.44v14.23h27.88v20.54h-27.88v15.72h27.28c-.43-2.11-.66-4.39-.66-6.81v-2.97h23.51c0,5.94,2.75,12.5,9.62,12.5,4.88,0,9.01-3.84,9.01-8.78,0-5.94-5-7.92-9.88-10.03-2.75-1.24-5.5-2.35-8.25-3.46-12-4.95-22.63-11.88-22.63-26.24h0Z"/><path class="uuid-02f5b7a2-b0b9-4c98-9fc8-43d1b9dfd319" d="m323.25,260.26c-14.33,0-26.15,10.73-27.89,24.59l-6.39,3.69,6.43,3.72c1.89,13.69,13.63,24.24,27.84,24.24,11.51,0,21.39-6.91,25.74-16.8h18.43v-22.54h-18.39c-4.33-9.94-14.24-16.89-25.78-16.89h.01Zm0,48.89c-10.56,0-19.61-7.7-21.05-17.9l-.39-2.73.35-2.75c1.33-10.35,10.39-18.16,21.08-18.16,11.72,0,21.25,9.32,21.25,20.77s-9.53,20.77-21.25,20.77h.01Z"/><path class="uuid-02f5b7a2-b0b9-4c98-9fc8-43d1b9dfd319" d="m0,102.81l85.31,333.57,414.69-71.71V102.81H0Zm207.35,243.32h-18.08v17.76h18.08v1.46h-18.08v19.5h-1.63v-40.18h19.71v1.46Zm24.97,0h-20.42v17.76h20.42v1.46h-20.42v18.03h20.42v1.46h-22.04v-40.19h22.04v1.47h0Zm12.11,39.42c-4.83,0-11.08-3.26-11.62-10.86h1.63c.98,7.71,6.84,9.39,9.94,9.39,5.05,0,10.1-3.8,10.1-9.56,0-7.39-6.41-8.96-10.27-9.94-3.53-.92-10.42-2.55-10.53-10.1v-.16c0-6.57,5.16-10.32,10.91-10.32,4.73,0,9.5,2.77,10.37,9.34h-1.63c-.6-3.2-2.39-7.87-8.85-7.87-5.1,0-9.18,3.48-9.18,8.74-.05,6.35,5.27,7.87,10.8,9.34,1.96.49,9.99,2.01,9.99,10.75,0,6.63-5.7,11.24-11.67,11.24h0Zm32.36-39.42h-10.91v38.72h-1.63v-38.72h-10.91v-1.47h23.46v1.47h0Zm167.4-12.13h-23.4v-36.66h-29.97v36.66h-23.41v-26.27c-7.53,17.12-24.29,28.01-43.59,28.01-23.77,0-43.57-16.58-47.55-39.25v1.24h-27.62v15.73h28.48v20.55h-50.9v-71.08h-14.98v71.08h-23.4v-71.08h-29.15l-16.5,71.18h-44.83l-50.07-194.01h50.34l25.95,126.1h.52l28.58-126.1h38.01l20.34,91.82h-33.79l-5.43-23.39h-.52l-7.84,33.84h113.67v20.56h-28.48v14.24h27.62v2.43c3.96-22.61,23.55-38.96,47.3-38.96,16.59,0,31.21,7.68,40.37,21.55,1.3,1.95,2.47,4.05,3.46,6.24v-26.05h23.41v34.43h29.97v-34.43h23.4v91.64-.02Zm18.23-173.12h-18.13v71.03h-23.63v-71.03h-16.38c.33,1.92.5,3.95.58,6.19h-23.38c-.76-5.07-2.5-8.91-8.5-8.91-4.13,0-8.12,2.85-8.12,7.18,0,1.36.12,2.72.88,3.84,2.25,3.71,14.38,8.41,18.25,10.14,12.26,5.57,21.63,11.88,21.63,26.24,0,19.18-14.01,28.09-32.26,28.09-14.42,0-26.51-5.71-31.24-17.36v15.63h-51.39v-72.48l-19.2,72.48h-44.96l19.2-91.82h50.07l-.06.25h46.33v19.12c3.43-13.3,17.86-20.85,31.62-20.85,9.01,0,19.14,3.34,25.01,10.4,1.6,1.96,2.79,3.84,3.67,5.75v-14.41h60.02v20.54-.02Z"/><path class="uuid-2d17e8b4-5439-43c8-a2a0-66e2bfc707ac" d="m344.51,288.38c0-11.45-9.53-20.77-21.25-20.77-10.69,0-19.76,7.81-21.08,18.16l-.35,2.75.39,2.73c1.44,10.2,10.49,17.9,21.05,17.9,11.72,0,21.25-9.32,21.25-20.77m-17.15-6.8l-3.98,14.7h-3.38l-2.25-9.51h-.04l-2.25,9.51h-3.48l-3.88-14.7h3.9l2.01,9.56h.04l2.22-9.56h2.95l2.17,9.59h.04l2.06-9.59h3.88-.01Zm12.36,14.7h-4.17l-.73-2.12h-5.22l-.79,2.12h-4.13l6.04-14.7h3.03l5.97,14.7h0Zm-9.06-5.1h3.15l-1.54-5.03h-.06l-1.54,5.03h0Z"/><path class="uuid-02f5b7a2-b0b9-4c98-9fc8-43d1b9dfd319" d="m47.82,2v66.96h68.22V2H47.82Zm54.48,11.52v2.7h-9.99l-4.69-2.7h14.68Zm-7.89,5.41h7.88v2.7h-7.85v-2.44s0-.1-.03-.26Zm-33.36-5.41h14.8l-4.69,2.7h-10.11v-2.7Zm7.86,5.48v2.63h-7.86v-2.7h7.86v.07Zm-7.86,5.34h7.86v2.7h-7.86v-2.7Zm0,5.4h7.87c.03.41.15,1.07.53,1.52.63.75,1.04.88,1.04.88l.51.3h-9.94v-2.7h-.01Zm0,7.82v-2.41h14.51l4.17,2.47s.21.11.5.23h-19.17v-.29h-.01Zm.27,2.99h18.97v2.7h-18.25c-.31-.88-.55-1.79-.72-2.7Zm1.92,5.41h17.05v2.7h-15.31c-.66-.87-1.24-1.77-1.74-2.7Zm4.13,5.41h12.92v2.7h-9.72c-1.16-.85-2.23-1.75-3.21-2.7h.01Zm12.93,8.01c-1.87-.64-3.65-1.75-5.31-2.61h5.31v2.61Zm-.15-24.65l-7.25-4.29s-.32-.1-.81-.69-.42-1.63-.42-1.48v-8.13s-.05-.49.34-1.04c.51-.71.99-.89.99-.89l8.73-5.03,8.38,4.83s.82.38,1.21,1.04c.35.59.37,1.23.37,1.23v7.54s.03.93-.25,1.48c-.27.54-.59.79-.59.79l-7.74,4.63s-.74.49-1.38.49-1.58-.49-1.58-.49h0Zm2.9,24.65v-2.61h5.31c-1.66.86-3.44,1.97-5.31,2.61Zm9.72-5.31h-9.72v-2.7h12.92c-.97.96-2.04,1.86-3.2,2.7Zm5.59-5.41h-15.31v-2.7h17.06c-.5.93-1.08,1.83-1.74,2.7h-.01Zm2.94-5.4h-18.26v-2.7h18.97c-.17.92-.41,1.82-.72,2.7h.01Zm.99-5.7v.29h-19.2c.25-.13.41-.24.41-.24l4.12-2.47h14.67v2.41h0Zm0-5.11h-10.16l1.24-.74s.41-.32.75-1.01c.14-.28.22-.63.26-.96h7.91v2.7h0Zm0-5.41h-7.85v-2.7h7.85v2.7Z"/><path class="uuid-02f5b7a2-b0b9-4c98-9fc8-43d1b9dfd319" d="m345.08,33.64c0-2.28-1.55-3.06-3.95-3.06-3.64,0-5.73,1.82-5.73,6.08v.27h5.42c3.33,0,4.26-1.2,4.26-3.29Z"/><path class="uuid-02f5b7a2-b0b9-4c98-9fc8-43d1b9dfd319" d="m117.72,2v66.96h344.5V2H117.72Zm37.79,20.18v1.26c0,.54-.28.78-.67.78-.15,0-.31-.04-.54-.12-.58-.2-1.57-.61-2.71-.9-1.01-.22-2.07-.33-3.36-.33-5.42,0-9.68,2.75-9.68,9.84v3.64c0,6.35,3.33,9.84,9.1,9.84h1.82c1.94,0,3.91-.58,4.84-.89.23-.08.39-.12.54-.12.39,0,.66.23.66.77v2.05s-.46.21-.78.31c-.7.27-3.02,1.04-5.27,1.04h-1.82c-8.79,0-12.7-5.46-12.7-13.01v-3.64c0-8.48,5.42-13.01,13.9-13.01.49,0,.98.03,1.47.07h.08c.49.04.97.11,1.42.2h.02c.05,0,.1.02.15.03,1.27.25,2.32.61,2.75.78.26.08.62.24.74.29.02.01.04.02.04.02v1.1Zm21.19,25.67c0,.73-.47,1.2-1.24,1.2h-2.09v-3.95l-1.51,1.55c-1.55,1.51-3.33,2.71-6.08,2.71-3.33,0-5.73-1.82-5.73-7.28v-13.01c0-.73.46-1.2,1.2-1.2h2.13v14.22c0,3.33,1.51,4.26,3.33,4.26,2.09,0,4.22-2.13,5.42-3.33l1.24-1.2v-12.74c0-.73.43-1.2,1.2-1.2h2.13v19.98h0Zm16.62-17.95v.98h-1.51c-1.51,0-3.3,1.5-3.95,2.3s-2.4,3.59-2.4,3.59v12.28h-2.13c-.77,0-1.2-.47-1.2-1.2v-19.98h2.09c.77,0,1.24.47,1.24,1.2v3.48l.31-.47c1.59-2.44,3.45-4.22,6.2-4.22h.15c.4,0,.72.14.93.38.18.2.27.48.27.82v.83h0Zm13.32,17.95v1.19h-3.02c-4.22,0-6.97-2.4-6.97-6.97v-19.05h2.13c.73,0,1.2.47,1.2,1.2v3.64h4.84c.77,0,1.2.47,1.2,1.2v1.82h-6.04v11.19c0,2.44,1.28,3.95,3.64,3.95h1.82c.38,0,.69.13.9.35.19.2.3.5.3.85v.62h0Zm10.09,0v1.19h-2.09c-.78,0-1.24-.46-1.24-1.2v-16.96h-2.36c-.81,0-1.2-.43-1.2-1.2v-1.82h5.69c.78,0,1.2.46,1.2,1.2v18.78h0Zm0-25.4c0,.73-.43,1.2-1.2,1.2h-2.13v-2.44c0-.73.46-1.2,1.24-1.2h2.09v2.44Zm20.85,26.6h-.89c-.77,0-1.24-.46-1.24-1.2v-13.01c0-3.33-1.51-4.26-3.29-4.26-2.13,0-4.26,2.13-5.46,3.33l-1.2,1.24v13.89h-2.12c-.78,0-1.2-.46-1.2-1.2v-19.98h2.09c.77,0,1.24.46,1.24,1.2v2.75l1.51-1.51c1.51-1.51,3.33-2.75,6.04-2.75,3.33,0,5.73,1.82,5.73,7.28v14.2h-1.2v.02Zm36.03-27.84v17.85c0,6.66-4.26,10.3-10.61,10.3s-10.57-3.68-10.57-10.3v-17.85c0-.74.47-1.2,1.2-1.2h2.44v19.05c0,5.15,3.02,7.12,6.93,7.12s6.97-1.97,6.97-7.12v-17.85c0-.74.46-1.2,1.2-1.2h2.44v1.2Zm22.04,26.64v1.2h-2.09c-.77,0-1.24-.46-1.24-1.2v-13.01c0-3.33-1.51-4.26-3.29-4.26-2.13,0-4.26,2.13-5.46,3.33l-1.2,1.24v13.9h-2.13c-.78,0-1.2-.46-1.2-1.2v-19.98h2.09c.77,0,1.24.47,1.24,1.2v2.75l1.51-1.51c1.51-1.51,3.33-2.75,6.04-2.75,3.33,0,5.73,1.82,5.73,7.28v13.01Zm10.9,0v1.2h-2.09c-.78,0-1.24-.46-1.24-1.2v-16.96h-2.37c-.81,0-1.2-.43-1.2-1.2v-1.82h5.69c.78,0,1.2.47,1.2,1.2v18.78h.01Zm0-25.41c0,.74-.43,1.2-1.2,1.2h-2.13v-2.44c0-.74.46-1.2,1.24-1.2h2.09v2.44Zm21.24,6.62v4.26c0,7.24-4.26,13.9-6.35,15.72h-3.64c-2.13-1.82-6.04-8.48-6.04-15.72v-4.26c0-.74.43-1.2,1.2-1.2h2.13v5.46c0,6.04,2.4,11.04,4.69,13.28,2.25-2.25,4.68-7.24,4.68-13.28v-4.26c0-.74.47-1.2,1.2-1.2h2.13v1.2Zm13.33,17.27c2.4,0,6.05-1.33,6.05-1.33v1.91c0,.78-.08,1.05-.74,1.36-.31.15-2.9,1.08-5.3,1.08-5.15,0-9.06-2.44-9.06-8.48v-4.22c0-5.77,3.91-9.1,9.06-9.1,4.22,0,7.24,1.82,7.24,6.08,0,3.76-2.4,6.04-6.62,6.04h-6.35v1.2c0,3.95,2.4,5.46,5.73,5.46h-.01Zm23.35-16.45v.98h-1.51c-1.51,0-3.3,1.5-3.95,2.3-.66.8-2.4,3.59-2.4,3.59v12.28h-2.13c-.77,0-1.2-.46-1.2-1.2v-19.98h2.09c.78,0,1.24.47,1.24,1.2v3.48l.31-.46c1.59-2.44,3.45-4.22,6.19-4.22h.16c.4,0,.72.14.93.38.18.2.27.48.27.82v.83h0Zm8.85,19.47c-2.56,0-5-.47-5.27-.54-.35-.09-.92-.28-.92-.28,0,0-.01-.45-.01-.85v-1.05c0-.62.43-.89.97-.89.15,0,.23,0,.38.04.35.08,2.4.54,4.84.54,3.33,0,5.15-.93,5.15-3.33,0-1.82-1.55-2.63-3.33-3.02l-3.18-.77c-2.87-.66-5-2.29-5-5.58,0-3.8,3.18-6.08,8.17-6.08,2.6,0,4.41.39,4.68.42.43.07.93.22.93.22v1.98c0,.62-.47.85-1.01.85-.66,0-2.09-.47-4.61-.47-3.18,0-4.84.93-4.84,3.06,0,1.94,1.32,2.13,3.02,2.56l2.59.62c3.29.77,5.88,2.09,5.88,6.2,0,4.69-4.06,6.35-8.48,6.35l.04.02Zm18.48-1.51v1.2h-2.09c-.77,0-1.24-.46-1.24-1.2v-16.96h-2.36c-.81,0-1.2-.43-1.2-1.2v-1.82h5.69c.77,0,1.2.47,1.2,1.2,0,0,0,18.78,0,18.78Zm0-25.41c0,.74-.43,1.2-1.2,1.2h-2.13v-2.44c0-.74.47-1.2,1.24-1.2h2.09v2.44Zm15.41,25.4v1.2h-3.02c-4.22,0-6.97-2.4-6.97-6.97v-19.05h2.13c.74,0,1.2.46,1.2,1.2v3.64h4.84c.77,0,1.2.46,1.2,1.2v1.82h-6.03v11.19c0,2.44,1.28,3.95,3.64,3.95h1.82c.38,0,.69.13.9.35.19.21.3.5.3.85v.62h-.01Zm20.36-1.5c0,7.24-4.26,9.99-11.5,9.99h-3.64v-1.82c0-.77.46-1.24,1.2-1.24h2.44c5.73,0,8.17-1.78,8.17-6.66v-3.02l-1.51,1.51c-1.55,1.55-3.41,2.75-6.16,2.75-3.48,0-5.65-1.94-5.65-7.28v-11.5c0-.73.46-1.2,1.2-1.2h2.13v12.71c0,3.21,1.31,4.26,3.25,4.26,2.09,0,4.3-2.13,5.5-3.33l1.24-1.24v-11.19c0-.73.42-1.2,1.2-1.2h2.13v18.47h0Z"/><path class="uuid-02f5b7a2-b0b9-4c98-9fc8-43d1b9dfd319" d="m47.82,2v66.96h68.22V2H47.82Zm54.48,11.52v2.7h-9.99l-4.69-2.7h14.68Zm-7.89,5.41h7.88v2.7h-7.85v-2.44s0-.1-.03-.26Zm-33.36-5.41h14.8l-4.69,2.7h-10.11v-2.7Zm7.86,5.48v2.63h-7.86v-2.7h7.86v.07Zm-7.86,5.34h7.86v2.7h-7.86v-2.7Zm0,5.4h7.87c.03.41.15,1.07.53,1.52.63.75,1.04.88,1.04.88l.51.3h-9.94v-2.7h-.01Zm0,7.82v-2.41h14.51l4.17,2.47s.21.11.5.23h-19.17v-.29h-.01Zm.27,2.99h18.97v2.7h-18.25c-.31-.88-.55-1.79-.72-2.7Zm1.92,5.41h17.05v2.7h-15.31c-.66-.87-1.24-1.77-1.74-2.7Zm4.13,5.41h12.92v2.7h-9.72c-1.16-.85-2.23-1.75-3.21-2.7h.01Zm12.93,8.01c-1.87-.64-3.65-1.75-5.31-2.61h5.31v2.61Zm-.15-24.65l-7.25-4.29s-.32-.1-.81-.69-.42-1.63-.42-1.48v-8.13s-.05-.49.34-1.04c.51-.71.99-.89.99-.89l8.73-5.03,8.38,4.83s.82.38,1.21,1.04c.35.59.37,1.23.37,1.23v7.54s.03.93-.25,1.48c-.27.54-.59.79-.59.79l-7.74,4.63s-.74.49-1.38.49-1.58-.49-1.58-.49h0Zm2.9,24.65v-2.61h5.31c-1.66.86-3.44,1.97-5.31,2.61Zm9.72-5.31h-9.72v-2.7h12.92c-.97.96-2.04,1.86-3.2,2.7Zm5.59-5.41h-15.31v-2.7h17.06c-.5.93-1.08,1.83-1.74,2.7h-.01Zm2.94-5.4h-18.26v-2.7h18.97c-.17.92-.41,1.82-.72,2.7h.01Zm.99-5.7v.29h-19.2c.25-.13.41-.24.41-.24l4.12-2.47h14.67v2.41h0Zm0-5.11h-10.16l1.24-.74s.41-.32.75-1.01c.14-.28.22-.63.26-.96h7.91v2.7h0Zm0-5.41h-7.85v-2.7h7.85v2.7Z"/><path class="uuid-02f5b7a2-b0b9-4c98-9fc8-43d1b9dfd319" d="m117.72,2v66.96h344.5V2H117.72Zm37.79,20.18v1.26c0,.54-.28.78-.67.78-.15,0-.31-.04-.54-.12-.58-.2-1.57-.61-2.71-.9-1.01-.22-2.07-.33-3.36-.33-5.42,0-9.68,2.75-9.68,9.84v3.64c0,6.35,3.33,9.84,9.1,9.84h1.82c1.94,0,3.91-.58,4.84-.89.23-.08.39-.12.54-.12.39,0,.66.23.66.77v2.05s-.46.21-.78.31c-.7.27-3.02,1.04-5.27,1.04h-1.82c-8.79,0-12.7-5.46-12.7-13.01v-3.64c0-8.48,5.42-13.01,13.9-13.01.49,0,.98.03,1.47.07h.08c.49.04.97.11,1.42.2h.02c.05,0,.1.02.15.03,1.27.25,2.32.61,2.75.78.26.08.62.24.74.29.02.01.04.02.04.02v1.1Zm21.19,25.67c0,.73-.47,1.2-1.24,1.2h-2.09v-3.95l-1.51,1.55c-1.55,1.51-3.33,2.71-6.08,2.71-3.33,0-5.73-1.82-5.73-7.28v-13.01c0-.73.46-1.2,1.2-1.2h2.13v14.22c0,3.33,1.51,4.26,3.33,4.26,2.09,0,4.22-2.13,5.42-3.33l1.24-1.2v-12.74c0-.73.43-1.2,1.2-1.2h2.13v19.98h0Zm16.62-17.95v.98h-1.51c-1.51,0-3.3,1.5-3.95,2.3s-2.4,3.59-2.4,3.59v12.28h-2.13c-.77,0-1.2-.47-1.2-1.2v-19.98h2.09c.77,0,1.24.47,1.24,1.2v3.48l.31-.47c1.59-2.44,3.45-4.22,6.2-4.22h.15c.4,0,.72.14.93.38.18.2.27.48.27.82v.83h0Zm13.32,17.95v1.19h-3.02c-4.22,0-6.97-2.4-6.97-6.97v-19.05h2.13c.73,0,1.2.47,1.2,1.2v3.64h4.84c.77,0,1.2.47,1.2,1.2v1.82h-6.04v11.19c0,2.44,1.28,3.95,3.64,3.95h1.82c.38,0,.69.13.9.35.19.2.3.5.3.85v.62h0Zm10.09,0v1.19h-2.09c-.78,0-1.24-.46-1.24-1.2v-16.96h-2.36c-.81,0-1.2-.43-1.2-1.2v-1.82h5.69c.78,0,1.2.46,1.2,1.2v18.78h0Zm0-25.4c0,.73-.43,1.2-1.2,1.2h-2.13v-2.44c0-.73.46-1.2,1.24-1.2h2.09v2.44Zm20.85,26.6h-.89c-.77,0-1.24-.46-1.24-1.2v-13.01c0-3.33-1.51-4.26-3.29-4.26-2.13,0-4.26,2.13-5.46,3.33l-1.2,1.24v13.89h-2.12c-.78,0-1.2-.46-1.2-1.2v-19.98h2.09c.77,0,1.24.46,1.24,1.2v2.75l1.51-1.51c1.51-1.51,3.33-2.75,6.04-2.75,3.33,0,5.73,1.82,5.73,7.28v14.2h-1.2v.02Zm36.03-27.84v17.85c0,6.66-4.26,10.3-10.61,10.3s-10.57-3.68-10.57-10.3v-17.85c0-.74.47-1.2,1.2-1.2h2.44v19.05c0,5.15,3.02,7.12,6.93,7.12s6.97-1.97,6.97-7.12v-17.85c0-.74.46-1.2,1.2-1.2h2.44v1.2Zm22.04,26.64v1.2h-2.09c-.77,0-1.24-.46-1.24-1.2v-13.01c0-3.33-1.51-4.26-3.29-4.26-2.13,0-4.26,2.13-5.46,3.33l-1.2,1.24v13.9h-2.13c-.78,0-1.2-.46-1.2-1.2v-19.98h2.09c.77,0,1.24.47,1.24,1.2v2.75l1.51-1.51c1.51-1.51,3.33-2.75,6.04-2.75,3.33,0,5.73,1.82,5.73,7.28v13.01Zm10.9,0v1.2h-2.09c-.78,0-1.24-.46-1.24-1.2v-16.96h-2.37c-.81,0-1.2-.43-1.2-1.2v-1.82h5.69c.78,0,1.2.47,1.2,1.2v18.78h.01Zm0-25.41c0,.74-.43,1.2-1.2,1.2h-2.13v-2.44c0-.74.46-1.2,1.24-1.2h2.09v2.44Zm21.24,6.62v4.26c0,7.24-4.26,13.9-6.35,15.72h-3.64c-2.13-1.82-6.04-8.48-6.04-15.72v-4.26c0-.74.43-1.2,1.2-1.2h2.13v5.46c0,6.04,2.4,11.04,4.69,13.28,2.25-2.25,4.68-7.24,4.68-13.28v-4.26c0-.74.47-1.2,1.2-1.2h2.13v1.2Zm13.33,17.27c2.4,0,6.05-1.33,6.05-1.33v1.91c0,.78-.08,1.05-.74,1.36-.31.15-2.9,1.08-5.3,1.08-5.15,0-9.06-2.44-9.06-8.48v-4.22c0-5.77,3.91-9.1,9.06-9.1,4.22,0,7.24,1.82,7.24,6.08,0,3.76-2.4,6.04-6.62,6.04h-6.35v1.2c0,3.95,2.4,5.46,5.73,5.46h-.01Zm23.35-16.45v.98h-1.51c-1.51,0-3.3,1.5-3.95,2.3-.66.8-2.4,3.59-2.4,3.59v12.28h-2.13c-.77,0-1.2-.46-1.2-1.2v-19.98h2.09c.78,0,1.24.47,1.24,1.2v3.48l.31-.46c1.59-2.44,3.45-4.22,6.19-4.22h.16c.4,0,.72.14.93.38.18.2.27.48.27.82v.83h0Zm8.85,19.47c-2.56,0-5-.47-5.27-.54-.35-.09-.92-.28-.92-.28,0,0-.01-.45-.01-.85v-1.05c0-.62.43-.89.97-.89.15,0,.23,0,.38.04.35.08,2.4.54,4.84.54,3.33,0,5.15-.93,5.15-3.33,0-1.82-1.55-2.63-3.33-3.02l-3.18-.77c-2.87-.66-5-2.29-5-5.58,0-3.8,3.18-6.08,8.17-6.08,2.6,0,4.41.39,4.68.42.43.07.93.22.93.22v1.98c0,.62-.47.85-1.01.85-.66,0-2.09-.47-4.61-.47-3.18,0-4.84.93-4.84,3.06,0,1.94,1.32,2.13,3.02,2.56l2.59.62c3.29.77,5.88,2.09,5.88,6.2,0,4.69-4.06,6.35-8.48,6.35l.04.02Zm18.48-1.51v1.2h-2.09c-.77,0-1.24-.46-1.24-1.2v-16.96h-2.36c-.81,0-1.2-.43-1.2-1.2v-1.82h5.69c.77,0,1.2.47,1.2,1.2,0,0,0,18.78,0,18.78Zm0-25.41c0,.74-.43,1.2-1.2,1.2h-2.13v-2.44c0-.74.47-1.2,1.24-1.2h2.09v2.44Zm15.41,25.4v1.2h-3.02c-4.22,0-6.97-2.4-6.97-6.97v-19.05h2.13c.74,0,1.2.46,1.2,1.2v3.64h4.84c.77,0,1.2.46,1.2,1.2v1.82h-6.03v11.19c0,2.44,1.28,3.95,3.64,3.95h1.82c.38,0,.69.13.9.35.19.21.3.5.3.85v.62h-.01Zm20.36-1.5c0,7.24-4.26,9.99-11.5,9.99h-3.64v-1.82c0-.77.46-1.24,1.2-1.24h2.44c5.73,0,8.17-1.78,8.17-6.66v-3.02l-1.51,1.51c-1.55,1.55-3.41,2.75-6.16,2.75-3.48,0-5.65-1.94-5.65-7.28v-11.5c0-.73.46-1.2,1.2-1.2h2.13v12.71c0,3.21,1.31,4.26,3.25,4.26,2.09,0,4.3-2.13,5.5-3.33l1.24-1.24v-11.19c0-.73.42-1.2,1.2-1.2h2.13v18.47h0Z"/><polygon class="uuid-02f5b7a2-b0b9-4c98-9fc8-43d1b9dfd319" points="341.13 46.33 341.12 46.33 341.12 46.33 341.13 46.33"/></svg>