<svg width="149" height="40" viewBox="0 0 149 40" fill="none" xmlns="http://www.w3.org/2000/svg">
<path d="M25.4637 8.68891C25.9832 9.43331 26.2967 9.96284 26.4227 10.1859C26.4644 10.2594 26.4704 10.3476 26.4381 10.426C25.4588 12.7952 24.0329 14.7423 22.4387 16.3336C21.8891 13.2239 20.0905 4.43956 16.6666 0C16.8216 1.13744 20.9892 9.89103 20.6824 17.903C17.1302 20.7485 13.2673 22.098 11.7257 22.5574C11.4846 22.6292 11.2835 22.365 11.415 22.1512C14.4197 17.2737 15.6938 10.9769 16.2325 6.33401C7.21288 6.65852 0 14.0735 0 23.1752C0 25.4923 0.46745 27.6997 1.31303 29.7093C5.2521 38.5177 9.61918 35.1437 7.11862 33.0859C6.06316 32.2177 6.42484 31.1986 9.34956 30.7047C9.34956 30.7047 8.49357 32.8842 14.24 33.621C21.9219 34.606 5.02633 40.0257 17.8327 39.9999C26.6803 39.4901 33.6986 32.153 33.6986 23.1752C33.6986 17.016 30.3947 11.6293 25.4637 8.68891ZM16.1229 28.7582C16.1229 28.7582 22.0628 26.1977 27.3817 19.9893C26.9039 21.1749 26.3175 22.6862 25.6259 24.5686C25.49 24.9381 25.2571 25.2642 24.9519 25.5131C23.1347 26.9926 18.6849 30.5216 13.886 32.1075C13.6131 32.1974 13.321 32.2155 13.0398 32.1563C11.8304 31.9036 10.3075 31.186 9.66192 30.8642C9.45587 30.7617 9.28708 30.5973 9.18132 30.3934C8.62893 29.3294 8.44315 28.5176 8.38123 28.101C8.35273 27.9113 8.42671 27.7205 8.57467 27.5983C8.95883 27.2809 9.78906 26.639 10.7059 26.2005C10.7059 26.2005 11.3312 26.1024 11.141 26.3896C10.9366 26.6977 9.97429 27.305 10.7059 27.6257C12.1011 28.238 13.7747 29.501 16.3504 27.5161C16.4698 27.424 16.6353 27.3006 16.8381 27.1504C17.3022 26.8068 17.1965 26.0843 16.6529 25.8886L14.8115 25.2264C14.6992 25.1858 14.6241 25.0795 14.6241 24.96V24.0786C14.6241 23.8834 14.817 23.7464 15.0012 23.811L18.1221 24.9063C18.7309 25.1201 19.4071 25.0099 19.9146 24.6114C20.5169 24.1388 21.1312 23.64 21.7258 23.1434C21.8852 23.0096 21.8397 22.7536 21.6436 22.6835L20.3936 22.2362C20.2856 22.1973 20.2138 22.0953 20.2138 21.9807V20.9091C20.2138 20.7222 20.3979 20.5911 20.5744 20.6525L22.2409 21.2314C22.9275 21.4699 23.6898 21.3098 24.2236 20.8164C25.2873 19.8336 25.9575 19.1396 25.1738 18.7455C24.8768 18.5958 24.4263 18.6485 23.9967 18.7356C23.8531 18.7647 23.783 18.5679 23.9129 18.5005C25.2253 17.8185 27.2245 16.7787 28.4958 16.1171C28.7523 15.9838 29.0197 16.2492 28.914 16.4986C28.8833 16.5375 22.756 24.5933 16.1229 28.7582Z" fill="#F4B38A"/>
<path d="M49.0259 30.7692V13.5384H55.1797C56.1151 13.5384 56.9602 13.7722 57.7151 14.2399C58.4782 14.7076 59.0813 15.3353 59.5243 16.123C59.9674 16.9107 60.189 17.7763 60.189 18.7199C60.189 19.6881 59.9592 20.5661 59.4997 21.3538C59.0484 22.1333 58.4413 22.7568 57.6782 23.2245C56.9151 23.684 56.0823 23.9138 55.1797 23.9138H52.029V30.7692H49.0259ZM52.029 20.9107H54.8597C55.2864 20.9107 55.6761 20.804 56.029 20.5907C56.3818 20.3774 56.6608 20.0902 56.8659 19.7292C57.0792 19.3681 57.1859 18.9661 57.1859 18.523C57.1859 18.0717 57.0792 17.6656 56.8659 17.3045C56.6608 16.9435 56.3818 16.6563 56.029 16.443C55.6761 16.2297 55.2864 16.123 54.8597 16.123H52.029V20.9107Z" fill="#F4B38A"/>
<path d="M67.0134 31.0892C65.8811 31.0892 64.8472 30.7979 63.9118 30.2153C62.9847 29.6327 62.2421 28.8533 61.6841 27.8768C61.1344 26.8922 60.8595 25.8051 60.8595 24.6153C60.8595 23.7127 61.0195 22.8717 61.3395 22.0922C61.6595 21.3045 62.0985 20.6153 62.6565 20.0245C63.2226 19.4256 63.879 18.9579 64.6257 18.6215C65.3724 18.2851 66.1682 18.1168 67.0134 18.1168C68.1457 18.1168 69.1754 18.4081 70.1026 18.9907C71.038 19.5733 71.7806 20.3568 72.3303 21.3415C72.8882 22.3261 73.1672 23.4174 73.1672 24.6153C73.1672 25.5097 73.0072 26.3466 72.6872 27.1261C72.3672 27.9056 71.9241 28.5948 71.358 29.1938C70.8 29.7845 70.1477 30.2481 69.4011 30.5845C68.6626 30.921 67.8667 31.0892 67.0134 31.0892ZM67.0134 28.0861C67.6124 28.0861 68.1498 27.9261 68.6257 27.6061C69.1016 27.2861 69.4749 26.8635 69.7457 26.3384C70.0247 25.8133 70.1641 25.2389 70.1641 24.6153C70.1641 23.9753 70.0206 23.3927 69.7334 22.8676C69.4544 22.3343 69.0729 21.9117 68.5888 21.5999C68.1129 21.2799 67.5877 21.1199 67.0134 21.1199C66.4226 21.1199 65.8893 21.2799 65.4134 21.5999C64.9375 21.9199 64.56 22.3466 64.2811 22.8799C64.0021 23.4133 63.8626 23.9917 63.8626 24.6153C63.8626 25.2635 64.0062 25.8502 64.2934 26.3753C64.5806 26.9004 64.9621 27.3189 65.438 27.6307C65.9221 27.9343 66.4472 28.0861 67.0134 28.0861Z" fill="#F4B38A"/>
<path d="M84.4363 12.3076H87.4393V30.7692H84.4363V29.2307C84.0424 29.7804 83.546 30.2276 82.947 30.5722C82.3481 30.9168 81.6547 31.0892 80.867 31.0892C79.9727 31.0892 79.1357 30.921 78.3563 30.5845C77.5768 30.2481 76.8875 29.7845 76.2886 29.1938C75.6978 28.5948 75.2342 27.9056 74.8978 27.1261C74.5614 26.3466 74.3932 25.5097 74.3932 24.6153C74.3932 23.721 74.5614 22.884 74.8978 22.1045C75.2342 21.3251 75.6978 20.6399 76.2886 20.0492C76.8875 19.4502 77.5768 18.9825 78.3563 18.6461C79.1357 18.3097 79.9727 18.1415 80.867 18.1415C81.6547 18.1415 82.3481 18.3138 82.947 18.6584C83.546 18.9948 84.0424 19.442 84.4363 19.9999V12.3076ZM80.904 28.1968C81.544 28.1968 82.1101 28.0368 82.6024 27.7168C83.0947 27.3968 83.4804 26.9661 83.7593 26.4245C84.0383 25.8748 84.1778 25.2717 84.1778 24.6153C84.1778 23.9507 84.0383 23.3476 83.7593 22.8061C83.4804 22.2563 83.0906 21.8215 82.5901 21.5015C82.0978 21.1815 81.5357 21.0215 80.904 21.0215C80.2722 21.0215 79.6937 21.1856 79.1686 21.5138C78.6516 21.8338 78.2373 22.2645 77.9255 22.8061C77.6219 23.3476 77.4701 23.9507 77.4701 24.6153C77.4701 25.2799 77.626 25.883 77.9378 26.4245C78.2496 26.9661 78.664 27.3968 79.1809 27.7168C79.706 28.0368 80.2804 28.1968 80.904 28.1968Z" fill="#F4B38A"/>
<path d="M97.9978 18.4615H101.185L94.4532 36.923H91.2655L93.4932 30.7692L89.0624 18.4615H92.3486L94.9947 26.6584L97.9978 18.4615Z" fill="#F4B38A"/>
<path d="M106.503 30.9907C105.863 30.9497 105.243 30.8225 104.644 30.6092C104.054 30.3876 103.528 30.0881 103.069 29.7107C102.609 29.3333 102.257 28.882 102.01 28.3568L104.546 27.2738C104.644 27.4379 104.804 27.6143 105.026 27.803C105.247 27.9835 105.51 28.1353 105.814 28.2584C106.125 28.3815 106.466 28.443 106.835 28.443C107.147 28.443 107.442 28.402 107.721 28.3199C108.008 28.2297 108.238 28.0943 108.41 27.9138C108.591 27.7333 108.681 27.4994 108.681 27.2122C108.681 26.9086 108.575 26.6748 108.361 26.5107C108.156 26.3384 107.894 26.2112 107.574 26.1292C107.262 26.0389 106.958 25.9569 106.663 25.883C105.883 25.7271 105.157 25.4851 104.484 25.1568C103.82 24.8286 103.282 24.4061 102.872 23.8892C102.47 23.364 102.269 22.7322 102.269 21.9938C102.269 21.1815 102.482 20.4799 102.909 19.8892C103.344 19.2984 103.906 18.843 104.595 18.523C105.293 18.203 106.043 18.043 106.847 18.043C107.824 18.043 108.718 18.2481 109.53 18.6584C110.351 19.0604 110.999 19.6307 111.475 20.3692L109.1 21.7722C108.985 21.5753 108.825 21.3948 108.62 21.2307C108.415 21.0584 108.181 20.9189 107.918 20.8122C107.656 20.6974 107.381 20.6317 107.094 20.6153C106.724 20.5989 106.388 20.6317 106.084 20.7138C105.781 20.7958 105.535 20.9353 105.346 21.1322C105.165 21.3292 105.075 21.5917 105.075 21.9199C105.075 22.2317 105.198 22.4656 105.444 22.6215C105.69 22.7692 105.986 22.884 106.33 22.9661C106.683 23.0481 107.02 23.1384 107.34 23.2368C108.062 23.4748 108.739 23.7661 109.37 24.1107C110.01 24.4553 110.523 24.8779 110.909 25.3784C111.295 25.8789 111.479 26.4779 111.463 27.1753C111.463 27.9712 111.225 28.6686 110.749 29.2676C110.273 29.8584 109.658 30.3097 108.903 30.6215C108.156 30.9333 107.356 31.0563 106.503 30.9907Z" fill="#F4B38A"/>
<path d="M117.2 30.9907C116.56 30.9497 115.94 30.8225 115.341 30.6092C114.751 30.3876 114.226 30.0881 113.766 29.7107C113.307 29.3333 112.954 28.882 112.708 28.3568L115.243 27.2738C115.341 27.4379 115.501 27.6143 115.723 27.803C115.945 27.9835 116.207 28.1353 116.511 28.2584C116.822 28.3815 117.163 28.443 117.532 28.443C117.844 28.443 118.139 28.402 118.418 28.3199C118.706 28.2297 118.935 28.0943 119.108 27.9138C119.288 27.7333 119.378 27.4994 119.378 27.2122C119.378 26.9086 119.272 26.6748 119.058 26.5107C118.853 26.3384 118.591 26.2112 118.271 26.1292C117.959 26.0389 117.655 25.9569 117.36 25.883C116.58 25.7271 115.854 25.4851 115.181 25.1568C114.517 24.8286 113.979 24.4061 113.569 23.8892C113.167 23.364 112.966 22.7322 112.966 21.9938C112.966 21.1815 113.179 20.4799 113.606 19.8892C114.041 19.2984 114.603 18.843 115.292 18.523C115.99 18.203 116.74 18.043 117.545 18.043C118.521 18.043 119.415 18.2481 120.228 18.6584C121.048 19.0604 121.696 19.6307 122.172 20.3692L119.797 21.7722C119.682 21.5753 119.522 21.3948 119.317 21.2307C119.112 21.0584 118.878 20.9189 118.615 20.8122C118.353 20.6974 118.078 20.6317 117.791 20.6153C117.421 20.5989 117.085 20.6317 116.781 20.7138C116.478 20.7958 116.232 20.9353 116.043 21.1322C115.862 21.3292 115.772 21.5917 115.772 21.9199C115.772 22.2317 115.895 22.4656 116.141 22.6215C116.388 22.7692 116.683 22.884 117.028 22.9661C117.38 23.0481 117.717 23.1384 118.037 23.2368C118.759 23.4748 119.436 23.7661 120.068 24.1107C120.708 24.4553 121.22 24.8779 121.606 25.3784C121.992 25.8789 122.176 26.4779 122.16 27.1753C122.16 27.9712 121.922 28.6686 121.446 29.2676C120.97 29.8584 120.355 30.3097 119.6 30.6215C118.853 30.9333 118.053 31.0563 117.2 30.9907Z" fill="#F4B38A"/>
<path d="M129.489 31.0892C128.357 31.0892 127.323 30.7979 126.388 30.2153C125.461 29.6327 124.718 28.8492 124.16 27.8645C123.61 26.8799 123.335 25.7927 123.335 24.603C123.335 23.7086 123.495 22.8717 123.815 22.0922C124.135 21.3045 124.574 20.6153 125.132 20.0245C125.699 19.4256 126.355 18.9579 127.102 18.6215C127.848 18.2851 128.644 18.1168 129.489 18.1168C130.449 18.1168 131.327 18.322 132.123 18.7322C132.927 19.1343 133.608 19.6881 134.166 20.3938C134.724 21.0994 135.13 21.9035 135.385 22.8061C135.639 23.7086 135.697 24.6522 135.557 25.6368H126.56C126.675 26.0963 126.864 26.5107 127.126 26.8799C127.389 27.241 127.721 27.5322 128.123 27.7538C128.525 27.9671 128.981 28.0779 129.489 28.0861C130.014 28.0943 130.49 27.9712 130.917 27.7168C131.352 27.4543 131.713 27.1015 132 26.6584L135.065 27.3722C134.564 28.4635 133.818 29.3579 132.825 30.0553C131.832 30.7445 130.72 31.0892 129.489 31.0892ZM126.462 23.3845H132.517C132.427 22.8922 132.234 22.4492 131.939 22.0553C131.651 21.6533 131.294 21.3333 130.868 21.0953C130.441 20.8574 129.982 20.7384 129.489 20.7384C128.997 20.7384 128.542 20.8574 128.123 21.0953C127.705 21.3251 127.348 21.641 127.052 22.043C126.765 22.4368 126.568 22.884 126.462 23.3845Z" fill="#F4B38A"/>
<path d="M145.233 18.4615H148.421L141.689 36.923H138.501L140.729 30.7692L136.298 18.4615H139.584L142.23 26.6584L145.233 18.4615Z" fill="#F4B38A"/>
</svg>
